HIERARCHY
ROOT Hips
{
	OFFSET 0.000000 0.000000 0.000000 
	CHANNELS 6 Xposition Yposition Zposition Yrotation Xrotation Zrotation
	JOINT Spine
	{
		OFFSET 0.000000 0.072080 0.012321 
		CHANNELS 3 Xrotation Yrotation Zrotation
		JOINT Spine1
		{
			OFFSET 0.000000 0.126984 -0.001294 
			CHANNELS 3 Xrotation Yrotation Zrotation
			JOINT Spine2
			{
				OFFSET 0.000000 0.106559 -0.010096 
				CHANNELS 3 Xrotation Yrotation Zrotation
				JOINT Neck
				{
					OFFSET 0.000000 0.108417 -0.034017 
					CHANNELS 3 Xrotation Yrotation Zrotation
					JOINT Neck1
					{
						OFFSET 0.000000 0.033906 0.007241 
						CHANNELS 3 Xrotation Yrotation Zrotation
						JOINT Head
						{
							OFFSET 0.000000 0.031458 0.006707 
							CHANNELS 3 Xrotation Yrotation Zrotation
							End Site
							{
								OFFSET 0.000000 0.179920 0.000962 
							}
						}
					}
				}
				JOINT LeftShoulder
				{
					OFFSET 0.048002 0.079586 -0.029634 
					CHANNELS 3 Zrotation Xrotation Yrotation
					JOINT LeftArm
					{
						OFFSET 0.096243 -0.008695 -0.014012 
						CHANNELS 3 Zrotation Xrotation Yrotation
						JOINT LeftForeArm
						{
							OFFSET 0.216305 0.000000 0.000000 
							CHANNELS 3 Xrotation Zrotation Yrotation
							JOINT LeftHand
							{
								OFFSET 0.217764 0.000000 0.000000 
								CHANNELS 3 Zrotation Yrotation Xrotation
								JOINT LeftHandThumb1
								{
									OFFSET 0.018582 -0.007835 0.020476 
									CHANNELS 3 Zrotation Xrotation Yrotation
									JOINT LeftHandThumb2
									{
										OFFSET 0.026269 -0.007835 0.022186 
										CHANNELS 3 Zrotation Xrotation Yrotation
										JOINT LeftHandThumb3
										{
											OFFSET 0.035170 -0.010504 0.017018 
											CHANNELS 3 Zrotation Xrotation Yrotation
											End Site
											{
												OFFSET 0.020312 -0.007813 0.007813 
											}
										}
									}
								}
								JOINT LeftHandMiddle1
								{
									OFFSET 0.081749 0.004803 0.003358 
									CHANNELS 3 Zrotation Xrotation Yrotation
									JOINT LeftHandMiddle2
									{
										OFFSET 0.045251 0.000000 0.000000 
										CHANNELS 3 Zrotation Xrotation Yrotation
										JOINT LeftHandMiddle3
										{
											OFFSET 0.029009 0.000000 0.000000 
											CHANNELS 3 Zrotation Xrotation Yrotation
											End Site
											{
												OFFSET 0.017969 0.000000 0.000000 
											}
										}
									}
								}
								JOINT LeftHandIndex1
								{
									OFFSET 0.081207 0.004803 0.021137 
									CHANNELS 3 Zrotation Xrotation Yrotation
									JOINT LeftHandIndex2
									{
										OFFSET 0.043354 0.000000 0.000000 
										CHANNELS 3 Zrotation Xrotation Yrotation
										JOINT LeftHandIndex3
										{
											OFFSET 0.026493 0.000000 0.000000 
											CHANNELS 3 Zrotation Xrotation Yrotation
											End Site
											{
												OFFSET 0.019531 0.000000 0.000000 
											}
										}
									}
								}
								JOINT LeftHandRing1
								{
									OFFSET 0.080666 0.002509 -0.014652 
									CHANNELS 3 Zrotation Xrotation Yrotation
									JOINT LeftHandRing2
									{
										OFFSET 0.042541 0.000000 0.000000 
										CHANNELS 3 Zrotation Xrotation Yrotation
										JOINT LeftHandRing3
										{
											OFFSET 0.029009 0.000000 0.000000 
											CHANNELS 3 Zrotation Xrotation Yrotation
											End Site
											{
												OFFSET 0.015625 0.000000 0.000000 
											}
										}
									}
								}
								JOINT LeftHandPinky1
								{
									OFFSET 0.078227 -0.000612 -0.030993 
									CHANNELS 3 Zrotation Xrotation Yrotation
									JOINT LeftHandPinky2
									{
										OFFSET 0.028721 0.000000 0.000000 
										CHANNELS 3 Zrotation Xrotation Yrotation
										JOINT LeftHandPinky3
										{
											OFFSET 0.021963 0.000000 0.000000 
											CHANNELS 3 Zrotation Xrotation Yrotation
											End Site
											{
												OFFSET 0.022656 0.000000 0.000000 
											}
										}
									}
								}
							}
						}
					}
				}
				JOINT RightShoulder
				{
					OFFSET -0.047970 0.079586 -0.029634 
					CHANNELS 3 Zrotation Xrotation Yrotation
					JOINT RightArm
					{
						OFFSET -0.096274 -0.008695 -0.014012 
						CHANNELS 3 Zrotation Xrotation Yrotation
						JOINT RightForeArm
						{
							OFFSET -0.216305 0.000000 0.000000 
							CHANNELS 3 Xrotation Zrotation Yrotation
							JOINT RightHand
							{
								OFFSET -0.217764 0.000000 0.000000 
								CHANNELS 3 Zrotation Yrotation Xrotation
								JOINT RightHandThumb1
								{
									OFFSET -0.019670 -0.007318 0.019638 
									CHANNELS 3 Zrotation Xrotation Yrotation
									JOINT RightHandThumb2
									{
										OFFSET -0.025498 -0.008492 0.023179 
										CHANNELS 3 Zrotation Xrotation Yrotation
										JOINT RightHandThumb3
										{
											OFFSET -0.034504 -0.010705 0.016680 
											CHANNELS 3 Zrotation Xrotation Yrotation
											End Site
											{
												OFFSET -0.020312 -0.007813 0.007813 
											}
										}
									}
								}
								JOINT RightHandIndex1
								{
									OFFSET -0.081770 0.003825 0.021187 
									CHANNELS 3 Zrotation Xrotation Yrotation
									JOINT RightHandIndex2
									{
										OFFSET -0.042006 0.000000 0.000000 
										CHANNELS 3 Zrotation Xrotation Yrotation
										JOINT RightHandIndex3
										{
											OFFSET -0.026449 0.000000 0.000000 
											CHANNELS 3 Zrotation Xrotation Yrotation
											End Site
											{
												OFFSET -0.020312 0.000000 0.000000 
											}
										}
									}
								}
								JOINT RightHandMiddle1
								{
									OFFSET -0.084059 0.003825 0.003342 
									CHANNELS 3 Zrotation Xrotation Yrotation
									JOINT RightHandMiddle2
									{
										OFFSET -0.043881 0.000000 0.000000 
										CHANNELS 3 Zrotation Xrotation Yrotation
										JOINT RightHandMiddle3
										{
											OFFSET -0.029191 0.000000 0.000000 
											CHANNELS 3 Zrotation Xrotation Yrotation
											End Site
											{
												OFFSET -0.017969 0.000000 0.000000 
											}
										}
									}
								}
								JOINT RightHandRing1
								{
									OFFSET -0.081798 0.003030 -0.015127 
									CHANNELS 3 Zrotation Xrotation Yrotation
									JOINT RightHandRing2
									{
										OFFSET -0.042198 0.000000 0.000000 
										CHANNELS 3 Zrotation Xrotation Yrotation
										JOINT RightHandRing3
										{
											OFFSET -0.026497 0.000000 0.000000 
											CHANNELS 3 Zrotation Xrotation Yrotation
											End Site
											{
												OFFSET -0.017188 0.000000 0.000000 
											}
										}
									}
								}
								JOINT RightHandPinky1
								{
									OFFSET -0.077902 -0.000930 -0.030891 
									CHANNELS 3 Zrotation Xrotation Yrotation
									JOINT RightHandPinky2
									{
										OFFSET -0.028538 0.000000 0.000000 
										CHANNELS 3 Zrotation Xrotation Yrotation
										JOINT RightHandPinky3
										{
											OFFSET -0.021734 0.000000 0.000000 
											CHANNELS 3 Zrotation Xrotation Yrotation
											End Site
											{
												OFFSET -0.022656 0.000000 0.000000 
											}
										}
									}
								}
							}
						}
					}
				}
			}
		}
	}
	JOINT LeftUpLeg
	{
		OFFSET 0.075264 -0.025573 0.000000 
		CHANNELS 3 Xrotation Yrotation Zrotation
		JOINT LeftLeg
		{
			OFFSET 0.000000 -0.326016 -0.013516 
			CHANNELS 3 Xrotation Yrotation Zrotation
			JOINT LeftFoot
			{
				OFFSET 0.000098 -0.306172 -0.006623 
				CHANNELS 3 Xrotation Yrotation Zrotation
				JOINT LeftToeBase
				{
					OFFSET -0.001432 -0.095259 0.064705 
					CHANNELS 3 Xrotation Yrotation Zrotation
					End Site
					{
						OFFSET 0.000000 0.000000 0.079438 
					}
				}
			}
		}
	}
	JOINT RightUpLeg
	{
		OFFSET -0.075264 -0.025573 0.000000 
		CHANNELS 3 Xrotation Yrotation Zrotation
		JOINT RightLeg
		{
			OFFSET 0.000000 -0.326016 -0.013516 
			CHANNELS 3 Xrotation Yrotation Zrotation
			JOINT RightFoot
			{
				OFFSET 0.000098 -0.306172 -0.006623 
				CHANNELS 3 Xrotation Yrotation Zrotation
				JOINT RightToeBase
				{
					OFFSET -0.001432 -0.095259 0.064705 
					CHANNELS 3 Xrotation Yrotation Zrotation
					End Site
					{
						OFFSET 0.000025 0.000000 0.079438 
					}
				}
			}
		}
	}
}
MOTION
Frames: 4
Frame Time: 0.033333
0.002202 0.754103 -0.008530 -4.715900 -5.457100 -1.260600 2.344400 0.191900 0.692400 4.686800 0.417000 1.261600 4.686800 0.417000 1.261600 -19.420700 0.185500 -0.361300 -0.000000 0.000000 -0.000000 13.487800 3.562900 -1.380900 -6.499200 11.789900 8.596200 -65.870499 34.275600 -13.466300 0.000000 -0.000000 -27.887800 8.475300 17.300800 -11.557400 -4.043400 13.830300 20.006901 -1.475000 -6.735600 -8.643800 3.650800 -3.261600 -4.251000 -35.400799 0.165300 -5.159600 -46.932598 3.020300 -7.471000 0.000000 0.000000 -0.000000 -35.302601 0.819900 -1.708400 -32.560600 4.059200 -2.292300 -0.000000 -0.000000 -0.000000 -35.181099 -1.291400 -11.150900 -65.201103 5.067300 -12.327800 -0.000000 -0.000000 -0.000000 -41.064400 -0.927100 -12.282100 -69.526398 7.749900 -13.218200 0.000000 -0.000000 -0.000000 -1.502300 11.324900 8.696400 69.987602 17.420401 11.345300 -0.000000 0.000000 31.316700 -11.732100 -15.431000 12.744100 4.899100 10.681900 -10.476300 1.824700 -6.964900 9.544100 -3.141100 -3.030300 4.239200 24.547600 -2.570800 -1.379100 40.382000 3.832900 1.277400 0.000000 0.000000 -0.000000 37.408100 -1.798800 2.998700 53.207600 -18.897100 4.848700 -0.000000 0.000000 -0.000000 40.202999 1.964900 6.893300 50.789799 2.677700 11.040100 0.000000 0.000000 -0.000000 45.798199 -0.162400 8.974700 62.642502 6.749300 16.089600 -0.000000 0.000000 -0.000000 -4.045300 13.624400 1.767700 9.760200 -0.020000 -0.252400 -0.847600 0.709700 1.956000 0.003000 -0.026200 0.062600 -2.307200 -4.149800 -0.386100 15.475000 0.036400 0.429300 -7.454700 -15.948700 0.669300 -0.020500 -0.187000 0.446700 
0.002405 0.754004 -0.008352 -4.730800 -5.473000 -1.188600 2.367100 0.192100 0.683500 4.732400 0.417300 1.248900 4.732400 0.417300 1.248900 -19.469299 0.216400 -0.404400 -0.000000 0.000000 -0.000000 13.392300 3.707000 -1.430300 -6.499900 11.789500 8.618500 -65.811501 34.254398 -13.642100 -0.001600 -0.000100 -27.821899 8.440300 17.348000 -11.590500 -3.914200 13.708000 19.776699 -1.468200 -6.721900 -8.636200 3.650800 -3.261600 -4.251000 -36.190800 0.275100 -5.275700 -48.913200 3.284300 -7.733500 0.000000 0.000000 -0.000000 -36.102299 0.907600 -1.747000 -35.705799 4.182100 -2.530300 0.000000 0.000000 0.000000 -35.963902 -1.167900 -11.323500 -68.179497 5.605500 -12.520600 0.000000 0.000000 -0.000000 -41.849899 -0.828900 -12.452900 -72.502403 8.436800 -13.290400 -0.000000 0.000000 -0.000000 -1.504200 11.321400 8.713600 69.951500 17.447300 11.534500 -0.001500 -0.000100 31.318800 -11.889600 -15.573500 12.709000 5.061300 10.834500 -10.907500 1.823000 -6.961500 9.542200 -3.141100 -3.030300 4.239200 25.856701 -2.503100 -1.304200 41.673302 3.860300 1.326000 0.000000 -0.000000 0.000000 38.705502 -1.675700 3.175100 53.261398 -18.340401 5.541300 -0.000000 0.000000 -0.000000 41.482201 2.069800 7.113700 50.745602 2.672300 11.033300 -0.000000 0.000000 0.000000 47.066101 -0.077600 9.294700 62.602200 6.740700 16.085899 0.000000 0.000000 -0.000000 -4.078100 13.693000 1.702900 9.934400 -0.006500 -0.257900 -1.057300 0.641000 1.979000 0.003000 -0.026500 0.063300 -2.417000 -4.381200 -0.538000 15.749900 0.053500 0.440800 -7.603400 -15.695100 0.693600 -0.020500 -0.187500 0.447800 
0.002684 0.753929 -0.008149 -4.749800 -5.512600 -1.100700 2.407000 0.194000 0.672200 4.812200 0.420800 1.232100 4.812200 0.420800 1.232100 -19.532600 0.242100 -0.439500 -0.000000 0.000000 -0.000000 13.209200 3.819100 -1.456500 -6.516900 11.787700 8.633800 -65.739998 34.171299 -13.930700 -0.004400 -0.000100 -27.741199 8.448600 17.409700 -11.556300 -3.736100 13.515100 19.502001 -1.448600 -6.681900 -8.614000 3.650800 -3.261600 -4.251000 -36.867100 0.387500 -5.388300 -50.678101 3.527200 -7.959800 -0.000000 0.000000 -0.000000 -36.787300 0.998000 -1.805900 -38.667999 4.287100 -2.747100 -0.000000 0.000000 0.000000 -36.643200 -1.067800 -11.459100 -70.977402 6.131100 -12.662200 0.000000 0.000000 -0.000000 -42.535198 -0.745100 -12.569600 -75.325104 9.111500 -13.323600 0.000000 -0.000000 0.000000 -1.499700 11.317300 8.740000 69.890404 17.478800 12.011700 -0.002300 -0.000600 30.788799 -12.148200 -15.590500 12.586800 5.214600 10.961300 -11.329200 1.816700 -6.949600 9.535600 -3.141100 -3.030300 4.239200 27.162800 -2.430000 -1.223300 42.926300 3.880600 1.372300 0.000000 0.000000 -0.000000 39.999298 -1.544000 3.352200 53.253899 -17.780899 6.206900 -0.000000 0.000000 -0.000000 42.760201 2.177200 7.328400 50.657299 2.663700 11.016800 -0.000000 -0.000000 -0.000000 48.333900 0.013900 9.604100 62.526001 6.729100 16.078400 0.000000 0.000000 -0.000000 -4.022200 13.822600 1.603700 9.991700 0.019700 -0.258900 -1.212900 0.500000 2.009400 0.003000 -0.026600 0.063700 -2.498800 -4.614700 -0.715800 16.011101 0.077100 0.452000 -7.742900 -15.442800 0.726200 -0.020600 -0.187900 0.448700 
0.003036 0.753899 -0.007847 -4.774600 -5.534000 -1.008900 2.453200 0.200400 0.659200 4.904500 0.433600 1.211600 4.904500 0.433600 1.211600 -19.607201 0.260500 -0.467800 -0.000000 0.000000 -0.000000 12.943500 3.886900 -1.458300 -6.546600 11.784700 8.634400 -65.640297 34.070702 -14.092000 -0.007800 -0.000200 -27.668600 8.463700 17.625900 -11.561400 -3.514500 13.256000 19.187201 -1.417000 -6.617400 -8.578300 3.650800 -3.261600 -4.251000 -37.432201 0.501100 -5.497300 -52.229599 3.746400 -8.152500 0.000000 0.000000 -0.000000 -37.360199 1.090400 -1.883700 -41.440102 4.373000 -2.942600 -0.000000 0.000000 -0.000000 -37.221298 -0.990900 -11.559700 -73.588600 6.639500 -12.757700 -0.000000 0.000000 0.000000 -43.122299 -0.675900 -12.635200 -77.986298 9.769000 -13.323200 0.000000 -0.000000 -0.000000 -1.508400 11.310200 8.771700 69.827400 17.514799 12.458100 -0.003900 -0.001100 30.334400 -12.424300 -15.693600 12.465600 5.354300 11.053400 -11.736400 1.804400 -6.926000 9.522500 -3.141100 -3.030300 4.239300 28.440500 -2.351000 -1.135000 44.103802 3.890300 1.415000 -0.000000 -0.000000 -0.000000 41.264198 -1.404700 3.528100 53.147099 -17.228001 6.831900 -0.000000 0.000000 -0.000000 44.012798 2.284300 7.531800 50.490101 2.647900 10.985100 0.000000 0.000000 0.000000 49.578701 0.109900 9.893500 62.382401 6.708100 16.063999 0.000000 -0.000000 0.000000 -3.901700 13.873600 1.462900 9.911100 0.052200 -0.254900 -1.298700 0.435000 2.040000 0.003000 -0.026700 0.063700 -2.560800 -4.814900 -0.896800 16.204599 0.103600 0.460600 -7.851500 -15.225900 0.767600 -0.020600 -0.188000 0.448900 
